<svg width="44" height="44" viewBox="0 0 44 44" fill="none" xmlns="http://www.w3.org/2000/svg">
<path d="M15.4005 26.9948L15.249 27.0812H10.694C9.70964 27.0812 8.91151 27.9159 8.91151 28.9457C8.91151 29.9755 9.70964 30.8102 10.694 30.8102H9.50561L2.7501 27.5732C1.77502 27.1059 0.623215 27.5542 0.176274 28.574C0.0598195 28.8393 0 29.1284 0 29.4199V29.5553C0 30.3248 0.41578 31.0283 1.07357 31.3722L8.00035 34.9955C8.99067 35.5125 10.082 35.7816 11.189 35.7812H23.7645V27.08C21.1795 25.5355 18.0141 25.5032 15.4005 26.9948Z" fill="#FFB782"/>
<path d="M24.1074 27.2988H31.8309V36H24.1074V27.2988Z" fill="#DE4C3C"/>
<path d="M25.4463 32.9033H26.6345V34.1466H25.4463V32.9033Z" fill="#7A4930"/>
<path d="M14.7219 31.3445H9.9691C9.64111 31.3445 9.375 31.0662 9.375 30.7231C9.375 30.3799 9.64111 30.1016 9.9691 30.1016H14.7219C15.0498 30.1016 15.316 30.3799 15.316 30.7231C15.316 31.0662 15.0498 31.3445 14.7219 31.3445Z" fill="#F2A46F"/>
<path d="M28.4422 19.3459C28.3597 19.3764 28.2534 19.4111 28.1231 19.4501C27.9928 19.4891 27.8419 19.5247 27.6705 19.5569C27.499 19.5891 27.3077 19.6162 27.0966 19.6383C26.8855 19.6603 26.6563 19.6713 26.409 19.6713C25.7791 19.6713 25.2349 19.5747 24.7765 19.3815C24.3181 19.1882 23.9405 18.9272 23.6437 18.5983C23.3469 18.2695 23.1267 17.8872 22.9833 17.4516C22.8398 17.016 22.7681 16.5541 22.7681 16.0659C22.7681 15.4895 22.8588 14.9607 23.0401 14.4793C23.2215 13.9979 23.4812 13.5826 23.8193 13.2334C24.1573 12.8842 24.5663 12.613 25.0461 12.4197C25.526 12.2265 26.0644 12.1299 26.6613 12.1299C27.0735 12.1299 27.4289 12.1561 27.7273 12.2087C28.0258 12.2613 28.2641 12.3113 28.4422 12.3587V14.3877C28.3696 14.3437 28.2814 14.2987 28.1775 14.253C28.0736 14.2072 27.9565 14.1657 27.8263 14.1284C27.696 14.0911 27.5534 14.0606 27.3984 14.0369C27.2434 14.0131 27.0785 14.0012 26.9037 14.0012C26.6563 14.0012 26.4189 14.0377 26.1913 14.1106C25.9638 14.1835 25.7642 14.2979 25.5928 14.4538C25.4213 14.6098 25.2844 14.8081 25.1822 15.0488C25.0799 15.2895 25.0288 15.576 25.0288 15.9082C25.0288 16.1896 25.07 16.4464 25.1525 16.6786C25.2349 16.9109 25.3553 17.1092 25.5136 17.2736C25.6719 17.438 25.8657 17.566 26.0949 17.6575C26.3241 17.7491 26.5838 17.7949 26.874 17.7948C27.0422 17.7949 27.203 17.7821 27.3563 17.7567C27.5097 17.7313 27.6523 17.6982 27.7842 17.6575C27.9161 17.6169 28.0373 17.5728 28.1478 17.5253C28.2583 17.4779 28.3564 17.4321 28.4422 17.388V19.3459Z" fill="#4D4D4D"/>
<path d="M36.3025 15.8777C36.3025 16.4574 36.2102 16.9804 36.0255 17.4465C35.8408 17.9127 35.586 18.311 35.2612 18.6416C34.9363 18.9721 34.5554 19.2264 34.1185 19.4043C33.6815 19.5823 33.2107 19.6713 32.7061 19.6713C32.218 19.6713 31.7588 19.5866 31.3284 19.4171C30.898 19.2476 30.5221 19.0043 30.2005 18.6873C29.879 18.3704 29.625 17.9847 29.4387 17.5304C29.2523 17.0761 29.1592 16.5642 29.1592 15.9947C29.1592 15.4251 29.2482 14.9031 29.4263 14.4284C29.6044 13.9538 29.8534 13.5461 30.1733 13.2054C30.4932 12.8647 30.8766 12.6003 31.3235 12.4121C31.7703 12.224 32.2625 12.1299 32.8001 12.1299C33.308 12.1299 33.7763 12.2172 34.205 12.3918C34.6338 12.5664 35.0031 12.8156 35.3131 13.1393C35.6231 13.4631 35.8655 13.8563 36.0403 14.3191C36.2151 14.7819 36.3025 15.3014 36.3025 15.8777V15.8777ZM34.0368 15.9387C34.0368 15.6269 34.0063 15.3506 33.9453 15.1099C33.8843 14.8692 33.7986 14.6666 33.6881 14.5022C33.5776 14.3377 33.4457 14.2132 33.2923 14.1284C33.139 14.0436 32.9683 14.0013 32.7803 14.0013C32.5396 14.0013 32.3334 14.0521 32.162 14.1538C31.9905 14.2555 31.8503 14.3928 31.7415 14.5657C31.6326 14.7386 31.5535 14.9403 31.504 15.1709C31.4545 15.4014 31.4298 15.6472 31.4298 15.9082C31.4298 16.2472 31.4661 16.5363 31.5386 16.7753C31.6112 17.0143 31.7085 17.2092 31.8305 17.3601C31.9525 17.5109 32.0927 17.6211 32.251 17.6906C32.4093 17.7601 32.5742 17.7949 32.7457 17.7949C32.9106 17.7949 33.0705 17.7584 33.2255 17.6855C33.3805 17.6126 33.5182 17.5008 33.6386 17.3499C33.759 17.199 33.8554 17.0067 33.928 16.7727C34.0005 16.5388 34.0368 16.2608 34.0368 15.9387V15.9387Z" fill="#4D4D4D"/>
<path d="M44.0002 15.8056C44.0002 16.3751 43.912 16.8904 43.7356 17.3515C43.5591 17.8126 43.3101 18.205 42.9886 18.5287C42.667 18.8525 42.2795 19.1025 41.8261 19.2788C41.3726 19.4551 40.8688 19.5432 40.3148 19.5432H37.312V12.251H40.2505C40.7287 12.251 41.1533 12.2925 41.5243 12.3756C41.8953 12.4586 42.2202 12.5764 42.4988 12.729C42.7775 12.8816 43.0117 13.0646 43.2013 13.2782C43.3909 13.4918 43.5451 13.7308 43.6638 13.9952C43.7826 14.2597 43.8683 14.5444 43.9211 14.8495C43.9738 15.1547 44.0002 15.4733 44.0002 15.8056V15.8056ZM41.7296 15.8259C41.7296 15.5886 41.695 15.3581 41.6257 15.1343C41.5565 14.9106 41.4509 14.7123 41.3091 14.5394C41.1673 14.3665 40.9876 14.2283 40.7699 14.1249C40.5522 14.0215 40.295 13.9698 39.9982 13.9698H39.4491V17.8244H40.0477C40.3082 17.8244 40.5423 17.7761 40.7501 17.6795C40.9579 17.5829 41.1343 17.4473 41.2794 17.2727C41.4245 17.0981 41.5358 16.8879 41.6134 16.6421C41.6908 16.3963 41.7296 16.1243 41.7296 15.8259Z" fill="#4D4D4D"/>
<path d="M0 12.5732H18.75V22.7176H0V12.5732Z" fill="#EA681C"/>
<path d="M0 10.2881H18.75V20.4325H0V10.2881Z" fill="#FD7B2F"/>
<path d="M0 8.00098H18.75V18.1454H0V8.00098Z" fill="#FDB62F"/>
<path d="M4.44922 18.1444H18.2651V8H14.3178L4.44922 18.1444Z" fill="#EA681C"/>
<path d="M16.0405 16.3748H3.21143C3.21143 15.8142 2.76978 15.3602 2.22461 15.3602V11.3025C2.76978 11.3025 3.21143 10.8485 3.21143 10.2881H16.0405C16.0405 10.8485 16.4822 11.3025 17.0273 11.3025V15.3602C16.4822 15.3602 16.0405 15.8148 16.0405 16.3748Z" fill="#FD7B2F"/>
<path d="M11.6084 13.3313C11.6084 11.6507 10.5039 10.2881 9.14137 10.2881C7.77883 10.2881 6.67432 11.6507 6.67432 13.3313C6.67432 15.0122 7.77883 16.3748 9.14137 16.3748C10.5039 16.3748 11.6084 15.0122 11.6084 13.3313Z" fill="#FDB62F"/>
<path d="M13.3477 12.5732H14.3345V13.5877H13.3477V12.5732Z" fill="#FDB62F"/>
<path d="M3.33643 12.5732H4.32325V13.5877H3.33643V12.5732Z" fill="#FDB62F"/>
</svg>
